<svg width="26" height="28" viewBox="0 0 26 28" fill="none" xmlns="http://www.w3.org/2000/svg">
<path fill-rule="evenodd" clip-rule="evenodd" d="M24 14C24 20.627 18.627 26 12 26C5.373 26 0 20.627 0 14C0 7.373 5.373 2 12 2C18.627 2 24 7.373 24 14ZM12.43 10.859C11.263 11.344 8.93 12.349 5.432 13.873C4.864 14.099 4.566 14.32 4.539 14.536C4.493 14.902 4.951 15.046 5.573 15.241C5.658 15.268 5.746 15.295 5.836 15.325C6.449 15.524 7.273 15.757 7.701 15.766C8.09 15.774 8.524 15.614 9.003 15.286C12.271 13.079 13.958 11.964 14.064 11.94C14.139 11.923 14.243 11.901 14.313 11.964C14.383 12.026 14.376 12.144 14.369 12.176C14.323 12.369 12.529 14.038 11.599 14.902C11.309 15.171 11.104 15.362 11.062 15.406C10.968 15.503 10.872 15.596 10.78 15.685C10.21 16.233 9.784 16.645 10.804 17.317C11.294 17.64 11.686 17.907 12.077 18.173C12.504 18.464 12.93 18.754 13.482 19.116C13.622 19.208 13.756 19.303 13.887 19.396C14.384 19.751 14.831 20.069 15.383 20.019C15.703 19.989 16.035 19.688 16.203 18.789C16.6 16.663 17.382 12.059 17.563 10.161C17.574 10.0034 17.5673 9.84509 17.543 9.689C17.5285 9.56293 17.4671 9.44693 17.371 9.364C17.228 9.247 17.006 9.222 16.906 9.224C16.455 9.232 15.763 9.473 12.43 10.859Z" fill="#FCFCFC"/>
<rect x="-1" y="1" width="26" height="26" rx="13" stroke="#FCFCFC" stroke-opacity="0.3" stroke-width="2"/>
</svg>
